<svg xmlns="http://www.w3.org/2000/svg" viewBox="0 0 64 64" width="64" height="64">
  <defs>
    <filter id="neon-red" x="-50%" y="-50%" width="200%" height="200%">
      <feGaussianBlur in="SourceGraphic" stdDeviation="2.5" result="blur"/>
      <feColorMatrix in="blur" type="matrix"
        values="1 0 0 0 0  0 0.15 0 0 0  0 0 0.15 0 0  0 0 0 1 0" result="glow"/>
      <feMerge>
        <feMergeNode in="glow"/>
        <feMergeNode in="glow"/>
        <feMergeNode in="SourceGraphic"/>
      </feMerge>
    </filter>
  </defs>
  <g filter="url(#neon-red)" fill="none" stroke="#FF4444" stroke-width="2.5" stroke-linecap="round" stroke-linejoin="round">
    <!-- outer frame -->
    <rect x="8" y="16" width="48" height="32" rx="4"/>
    <!-- inner frame -->
    <rect x="12" y="20" width="40" height="24" rx="2"/>
    <!-- B -->
    <path d="M18 28 L18 36 M18 28 L22 28 Q24 28 24 30 Q24 32 22 32 L18 32 M18 32 L22 32 Q25 32 25 34 Q25 36 22 36 L18 36"/>
    <!-- A -->
    <path d="M28 36 L31 28 L34 36 M29 33 L33 33"/>
    <!-- R -->
    <path d="M38 28 L38 36 M38 28 L42 28 Q44 28 44 30.5 Q44 33 42 33 L38 33 M41 33 L44 36"/>
  </g>
</svg>
